<svg width="120" height="52" fill="none" xmlns="http://www.w3.org/2000/svg"><path d="M78.376 6.934c0 1.253.196 2.275.786 3.178 1.346 2.061 3.576 1.735 4.946-.23C86.222 6.852 84.817 2 82.257 2h-.418c-1.91 0-3.463 2.757-3.463 4.934zm8.17 5.666c-1.013-.713-1.125-1.807-1.125-2.959 0-2.067 2.322-5.15 4.447-3.518.952.733 1.087 2.427.832 3.542-.595 2.592-2.808 3.882-4.154 2.935zm-11.872 5.886c0 1.23.064 2.36.704 3.382.85 1.359 2.02 2.18 3.455 2.896.376.187.707.354 1.048.569.349.219.636.434.943.673.101.079.166.145.235.215.05.05.1.101.169.161 1.283 1.136 1.579 2.358 1.866 3.54.206.852.408 1.683.97 2.447 1.377 1.868 4.234.97 5.762-.54.211-.208.385-.426.566-.652l.002-.002v-.002l.176-.218c.805-.983 1.658-3.04 1.658-4.828 0-2.568-.343-3.88-1.392-5.997a8.663 8.663 0 00-.387-.694l-.9-1.32c-1.746-2.357-4.418-4.339-7.279-4.998-2.418-.558-4.955.049-6.411 2.05-.55.755-1.185 2.036-1.185 3.318zm19.524 5.716c.772 0 1.197-.273 1.687-.828 1.502-1.699.109-3.874-1.766-2.321-1.426 1.18-1.148 3.149.08 3.149zm-3.045-7.582c2.42 0 3.885-4.289 1.953-5.277-.582-.298-1.085-.217-1.636.061-.762.385-1.426 1.254-1.698 2.08-.506 1.534.032 3.137 1.381 3.137zm1.075 2.588v-.361c0-1.299 1.6-3.014 2.95-2.37.177.085.26.136.372.286.664.88.17 1.954-.421 2.72-.438.569-1.055.868-1.826.868-.569 0-1.075-.568-1.075-1.143z" fill="#fff"/><path fill-rule="evenodd" clip-rule="evenodd" d="M116.669 47.096v1.744h.337v-.584h.333l.355.584h.379l-.397-.656a.481.481 0 00.229-.2.586.586 0 00-.072-.705.573.573 0 00-.175-.133.491.491 0 00-.221-.05h-.768zm.76.863h-.423v-.566h.409a.2.2 0 01.087.021.242.242 0 01.075.06.294.294 0 01.072.202.334.334 0 01-.063.2.228.228 0 01-.07.06.175.175 0 01-.087.023z" fill="#fff"/><path fill-rule="evenodd" clip-rule="evenodd" d="M115.782 47.968a1.52 1.52 0 011.517-1.524 1.52 1.52 0 011.517 1.524 1.52 1.52 0 01-1.517 1.524 1.52 1.52 0 01-1.517-1.524zm.296 0c0-.677.547-1.226 1.221-1.226s1.22.55 1.22 1.226c0 .677-.546 1.226-1.22 1.226a1.224 1.224 0 01-1.221-1.226z" fill="#fff"/><path d="M1.833 36.223v-.42c0-.786.274-1.514.535-2.04 1.6-3.227 6.007-3.517 9.04-1.676.226.137.817.527.956.717l-1.488 2.04c-.723-.671-1.791-1.448-3.277-1.326-2.305.231-3.625 2.535-1.603 3.907.61.414 1.4.71 2.02.941.18.068.346.13.49.188 1.799.73 3.81 1.564 4.402 3.598.5 1.718.171 3.866-.925 5.323a5.12 5.12 0 01-1.012 1.02 6.473 6.473 0 01-1.723.902 6.608 6.608 0 01-1.051.26c-2.014.282-3.84-.105-5.293-1.139a7.75 7.75 0 01-1.65-1.636c-.024-.033-.05-.064-.073-.093-.078-.096-.147-.18-.181-.31l1.904-1.859c.392.59.792 1.13 1.394 1.533 1.078.721 2.798 1.041 3.981.468.472-.229.89-.537 1.168-.983.935-1.5.505-3.073-1.208-3.937-.546-.275-1.163-.508-1.795-.747-2.22-.839-4.61-1.742-4.61-4.731zm85.016 5.674c0-4.402-3.541-7.97-7.909-7.97-4.367 0-7.908 3.568-7.908 7.97 0 4.4 3.54 7.969 7.908 7.969s7.909-3.568 7.909-7.97zM99.976 34h2.912v15.746h-1.994l-9-10.407v10.165h-2.912V34h2.053l8.94 10.404V34zm6.193 6.93c.427.537 1.185 1.011 1.883 1.3.218.091.469.185.736.285.879.329 1.931.722 2.571 1.277.93.807.723 2.328-.303 2.915-.667.382-1.48.446-2.227.284-.982-.215-1.785-.995-2.246-1.862l-1.925 1.796c2.024 3.432 7.937 4.017 9.889.164.545-1.078.639-2.792.195-3.913-.695-1.754-2.425-2.377-3.895-2.907-1.301-.47-2.399-.865-2.399-1.906 0-1.196 1.44-1.843 2.764-1.54.818.186 1.241.619 1.525.91.084.086.157.16.224.21.201-.299.527-.71.834-1.097v-.001c.272-.343.529-.668.67-.877-.403-.598-1.648-1.157-2.384-1.4a6.018 6.018 0 00-3.273-.158c-2.019.482-3.429 2.16-3.429 4.133 0 .94.259 1.718.79 2.387zm-40.193 8.562h3.033V34.508h-3.033v14.984zm-1.517-14.984H54.85v2.588h3.342v12.396h2.924V37.096h3.342v-2.588zm-23.26 8.747c0 1.626.276 3.486 1.372 4.627.532.553 1.021.96 1.75 1.275.75.325 1.571.526 2.407.589h1.143c1.467-.113 2.894-.67 3.97-1.744.982-.982 1.493-2.379 1.493-4.322v-9.426h-3.019v10.002l-.002.02-.003.024c-.093 1.602-1.426 2.884-3.043 2.884-1.677 0-3.049-1.378-3.049-3.063v-9.238c.002-.076.006-.144.009-.203a.808.808 0 00-.009-.263v-.163H41.2v9.002zM35.3 34.508h-2.95v14.984h7.585v-2.637H35.3V34.508z" fill="#fff"/><path fill-rule="evenodd" clip-rule="evenodd" d="M22.364 34c4.398 0 7.963 3.582 7.963 8s-3.565 8-7.963 8c-4.399 0-7.964-3.582-7.964-8s3.565-8 7.964-8zm0 2.97c-2.766 0-5.008 2.252-5.008 5.03 0 2.778 2.242 5.03 5.008 5.03 2.765 0 5.007-2.252 5.007-5.03 0-2.778-2.242-5.03-5.007-5.03z" fill="#fff"/><path d="M19.456 13.429h9.355v2.635h-6.237v4.608h5.817v2.636h-5.817v8.152h-3.118V13.43z" fill="#fff"/><path fill-rule="evenodd" clip-rule="evenodd" d="M45.497 23.968c0-4.418-3.566-8-7.964-8-4.398 0-7.964 3.582-7.964 8 0 4.419 3.566 8 7.964 8 4.398 0 7.964-3.581 7.964-8zm-12.972 0c0-2.778 2.242-5.03 5.008-5.03s5.008 2.252 5.008 5.03c0 2.779-2.242 5.03-5.008 5.03s-5.008-2.252-5.008-5.03zm22.2-8c4.398 0 7.964 3.582 7.964 8 0 4.419-3.566 8-7.964 8-4.398 0-7.964-3.581-7.964-8 0-4.418 3.566-8 7.964-8zm0 2.97c-2.766 0-5.008 2.252-5.008 5.03 0 2.779 2.242 5.03 5.008 5.03s5.008-2.252 5.008-5.03c0-2.778-2.242-5.03-5.008-5.03z" fill="#fff"/><path d="M62.689 16.476h9.607v2.588h-3.342V31.46h-2.923V19.064h-3.342v-2.588z" fill="#fff"/></svg>